# xmcd
#
# Track frame offsets:
#	150
#	12997
#	24405
#	38747
#	47702
#	55767
#	67537
#	78462
#	87627
#	99550
#	110120
#	120932
#
# Disc length: 1805 seconds
#
# Revision: 2
# Processed by: cddbd v1.5.2PL0 Copyright (c) Steve Scherf et al.
# Submitted via: audiograbber 1.83.01
#
DISCID=8e070b0c
DTITLE=Johnny Horton - Johnny Horton Makes History
DYEAR=1900
DGENRE=Oldies
TTITLE0=Johnny Freedom (Freedomland)
TTITLE1=Jim Bridger
TTITLE2=Comanche (The Brave Horse)
TTITLE3=Snow Shoe Thompson
TTITLE4=O'Leary's Cow
TTITLE5=The Battle Of New Orleans
TTITLE6=John Paul Jones
TTITLE7=Young Abe Lincoln (Make A Tall, Tall Man)
TTITLE8=The Battle Of Bull Run
TTITLE9=The Sinking Of The Reuben James
TTITLE10=Johnny Reb
TTITLE11=Sink The Bismark
EXTD=
EXTT0=
EXTT1=
EXTT2=
EXTT3=
EXTT4=
EXTT5=
EXTT6=
EXTT7=
EXTT8=
EXTT9=
EXTT10=
EXTT11=
PLAYORDER=
